<?xml version="1.0" encoding="UTF-8"?>
<svg xmlns="http://www.w3.org/2000/svg" version="1.1" viewBox="0 0 68.5 39.5">
  <defs>
    <style>
      .cls-1 {
        fill: #fff;
      }

      .cls-2 {
        fill: #2f2f30;
      }
    </style>
  </defs>
  <!-- Generator: Adobe Illustrator 28.7.1, SVG Export Plug-In . SVG Version: 1.2.0 Build 142)  -->
  <g>
    <g id="Capa_1">
      <g>
        <polygon class="cls-2" points="66.8 .6 .8 .6 .8 38.9 67.7 35.9 66.8 .6"/>
        <path class="cls-1" d="M50.2,15.6c0,0,.2,0,.4,0,.3,0,.7-.2.7-.8s-.4-.8-.8-.8h-.2v1.6ZM50.6,13.8c.7,0,1.1.4,1.1,1s-.6,1.2-1.3,1.2h-.6v-2.2h.8ZM48.1,14.1l-.3.9h.7l-.3-.9ZM48.5,15.3h-.9l-.2.6h-.4l.8-2.2h.4c0,0,.8,2.2.8,2.2h-.4l-.2-.6ZM45.1,15.6c0,0,.2,0,.4,0,.3,0,.7-.2.7-.8s-.4-.8-.8-.8h-.2v1.6ZM45.5,13.8c.7,0,1.1.4,1.1,1s-.6,1.2-1.3,1.2h-.6v-2.2h.8ZM43.8,15.9h-.4v-2.2h.4v2.2ZM41.1,14.3c0-.3.3-.6.8-.6s.5,0,.7,0v.3c-.3,0-.5-.1-.8-.1s-.3,0-.3.3.1.3.5.4c.6.2.7.4.7.7s-.4.7-.9.7-.5,0-.6,0v-.3c.3,0,.5.1.8.1s.4,0,.4-.3,0-.3-.5-.5c-.5-.2-.6-.3-.6-.7M39.8,14.4c0-.3-.1-.4-.5-.4s-.2,0-.2,0v.7c0,0,.2,0,.3,0,.2,0,.4,0,.4-.4M39.1,15v.9h-.4v-2.2h.7c.5,0,.7.2.7.6s-.2.5-.4.6l.6,1h-.4l-.5-.9c0,0-.1,0-.2,0s-.1,0-.2,0M36.5,13.8h1.4v.3c-.3,0-.7,0-1,0v.7h.9v.3s-.9,0-.9,0v.7h1s0,.3,0,.3h-1.4v-2.2ZM33.8,13.8h.4c0,0,.6,1.7.6,1.7l.6-1.8h.4l-.8,2.2h-.4c0,0-.8-2.1-.8-2.1ZM33.1,15.9h-.4v-2.2h.4v2.2ZM31.4,16l-1.2-1.7v1.6h-.4v-2.2h.4l1.1,1.6v-1.6h.4v2.2h-.3ZM27.2,13.8h.4v1.4c0,.4.2.6.6.6s.4-.1.4-.5v-1.5h.4v1.4c0,.5-.3.9-.9.9s-.8-.2-.8-.8v-1.5Z"/>
        <path class="cls-1" d="M58.1,18h.7v3.6h1.8s0,.5,0,.5h-2.5v-4.1ZM55,18.7l-.6,1.8h1.2l-.6-1.8ZM55.8,21h-1.6l-.4,1.1h-.7l1.6-4.1h.8c0-.1,1.6,4.1,1.6,4.1h-.8l-.4-1.1ZM51.3,22.2l-2.2-3.2v3.1h-.7v-4.1h.7l2.1,3.1v-3.1h.7v4.1h-.6ZM45,18.5c-.6,0-1.2.4-1.2,1.5s.6,1.7,1.4,1.7,1.2-.4,1.2-1.5-.6-1.7-1.4-1.7M44.9,22.2c-1.1,0-1.9-.8-1.9-2.1s.9-2.2,2.2-2.2,1.9.8,1.9,2.1-.9,2.2-2.2,2.2M41.7,22.1h-.7v-4.1h.7v4.1ZM39.8,21.9c-.3.2-.9.3-1.3.3-1.2,0-2.1-.7-2.1-2.1s.9-2.2,2.2-2.2,1,0,1.2.2l-.2.6c-.3,0-.7-.2-1.2-.2s-1.2.4-1.2,1.5.8,1.7,1.5,1.7.8-.1,1-.2l.2.5ZM33.7,18.7l-.6,1.8h1.2l-.6-1.8ZM34.6,21h-1.6l-.4,1.1h-.7l1.6-4.1h.8c0-.1,1.6,4.1,1.6,4.1h-.8l-.4-1.1ZM30.1,22.2l-2.2-3.2v3.1h-.7v-4.1h.7l2.1,3.1v-3.1h.7v4.1h-.6Z"/>
        <path class="cls-1" d="M29.9,24.2h1.4v.3c-.3,0-.7,0-1,0v.7h.9v.3s-.9,0-.9,0v.7h1s0,.3,0,.3h-1.4v-2.2ZM27.6,26.1c0,0,.2,0,.4,0,.3,0,.7-.2.7-.8s-.4-.8-.8-.8h-.2v1.6ZM28,24.2c.7,0,1.1.4,1.1,1s-.6,1.2-1.3,1.2h-.6v-2.2h.8Z"/>
        <path class="cls-1" d="M51,24.6l-.3.9h.7l-.3-.9ZM51.4,25.8h-.9l-.2.6h-.4l.8-2.2h.4c0,0,.8,2.2.8,2.2h-.4l-.2-.6ZM49.3,26.4h-.4v-2.2h.4v2.2ZM47.7,25.8c0-.3-.2-.4-.6-.4s-.2,0-.3,0v.7c.1,0,.3,0,.4,0,.2,0,.4,0,.4-.3M47.6,24.9c0-.2-.1-.4-.5-.4s-.1,0-.2,0v.7c0,0,.2,0,.2,0,.3,0,.4-.1.4-.3M46.5,24.2h.7c.5,0,.7.2.7.5s-.2.4-.4.5c.2,0,.5.2.5.5s-.4.6-1,.6h-.6v-2.2ZM43.5,24.7l-.2,1.7h-.4l.3-2.2h.4l.7,1.7.7-1.7h.4l.3,2.2h-.4l-.2-1.7-.6,1.6h0s-.3,0-.3,0l-.6-1.7ZM41.2,24.5c-.3,0-.6.2-.6.8s.3.9.7.9.6-.2.6-.8-.3-.9-.7-.9M41.2,26.5c-.6,0-1-.4-1-1.1s.5-1.2,1.2-1.2,1,.4,1,1.1-.5,1.2-1.2,1.2M38.3,24.2h.4v1.9h1s0,.3,0,.3h-1.3v-2.2ZM36.4,24.5c-.3,0-.6.2-.6.8s.3.9.7.9.6-.2.6-.8-.3-.9-.7-.9M36.3,26.5c-.6,0-1-.4-1-1.1s.5-1.2,1.2-1.2,1,.4,1,1.1-.5,1.2-1.2,1.2M34.8,26.3c-.2,0-.5.2-.7.2-.6,0-1.1-.4-1.1-1.1s.5-1.2,1.2-1.2.5,0,.6,0v.3c-.2,0-.5-.1-.7-.1s-.6.2-.6.8.4.9.8.9.4,0,.5-.1v.3Z"/>
        <path class="cls-1" d="M21.9,21c0,.2,0,.3,0,.4,0,.8.3,1.2.6,1.6.3.3.5.7.8,1.1.2-.2.4-.6.4-1.1,0-.9-.4-1.7-1.4-2.2.6.6,1,1.4,1.1,2.6-.2-1.1-.6-1.9-1.2-2.5.2.8.5,1.4.8,2.1-.5-.5-.9-1.2-1-2.1M22,18.9c.2.5.6.9,1.1.9s.6-.1.7-.4c-.1.3-.4.6-.7.6-.6,0-1-.4-1.2-.9,0,.7.5,1.3,1.2,1.3s1-.4,1-1-.3-.9-.6-.9-.2,0-.2,0c0,0,0,0,.2,0,.2,0,.3.1.3.3,0,.3-.2.5-.6.5s-.8-.2-1.1-.5M23.1,19.2c.1,0,.4,0,.4-.2,0,0,0,0-.1,0-.2,0-.3-.1-.3-.3s.2-.4.4-.4c.4,0,.8.4.8,1s-.5,1.2-1.2,1.2-1.4-.5-1.4-1.6,0-.5,0-.7c.3.6.8.9,1.3.9M23.1,21.2c.4.4.7.9.7,1.8s-.3,1.2-.6,1.4c-.2-.6-.5-1-.8-1.3-.4-.4-.7-.9-.7-1.7s0-.9.2-1.2c.2.4.7.5,1.2,1M22,16.4c0-.3.1-1.1.2-1.4-.4.6-.6,1.1-.6,1.6s.3,1.4.9,1.9c0-.8.4-1.5.4-2.3s-.1-1-.4-1.3c0,.2.1.7.1,1s-.1,1.2-.3,1.8c.1-.8.2-1.4.2-1.8s0-.7-.1-1c0,.4-.2.8-.2,1.4,0,.3,0,.6,0,1,0-.2,0-.7,0-1M23.1,16.2c0,.8-.4,1.5-.4,2.2s0,.2,0,.3c-.7-.4-1.3-1.3-1.3-2.2s.7-1.5.7-2,0,0,0-.1c.6.3,1,1,1,1.8M21.6,29.5h0s0-.3,0-.3h0v.3s0,.2,0,.2h-.1s0-.6,0-.6h.1s0,.2,0,.2h0c0,.1,0,.1,0,.1h0c0-.1,0-.4,0-.4h.1s0,.5,0,.5h-.1c0,0,0-.2,0-.2v-.2s0,0,0,0v.4ZM24.1,14.1c0-.3-.2-.5-.5-.5s0,0-.1,0c.1,0,.2,0,.2.2s-.1.2-.2.2c-.3,0-.3-.4-1-.5.8-.3.9-.9.9-1.2,0,0-.2,0-.3,0-.3,0-.7.1-1,.6,0-.1,0-.3,0-.4,0-.6-.3-.9-.3-1.2s0-.2,0-.2c0,0,0,0-.1,0-.5.2-.8.7-.8,1.5s.2.9.3,1.1c-.1-.9,0-1.7.3-2.2-.1.5-.3,1.3,0,2.2.1-.4.2-.9.3-1.4,0,.5,0,1-.2,1.5.3-.4.9-.9,1.4-1-.5.3-1,.8-1.2,1.1.4-.2.7-.4,1-.6-.2.3-.6.5-1,.7.2,0,.6,0,.8.2.5.3.8.6,1.1.4-.3.3-.7,0-1.1-.2-.3-.2-.7-.2-.8-.2.5.3,1.1.8,1.6.8s.6-.2.6-.5M21.1,29v.5c0,0,0,.1,0,.1s0,0,0,0v-.5h.1v.5c0,.1,0,.2-.2.2s-.2,0-.2-.2v-.5h.1ZM21.4,13.9c-.3-.4-.5-1-.5-1.5,0-1.1.6-1.6,1.2-1.7,0,.1,0,.2,0,.4,0,.5.3.7.3,1.3.2-.2.5-.3.8-.3s.4,0,.4,0c0,.5-.2,1.1-.7,1.3.2,0,.3.2.4.3,0-.2.1-.3.4-.3s.6.2.6.7-.3.7-.8.7c-.8,0-1.4-.9-2.1-.9M20.8,29.2c0,0,0-.1-.1-.1v.2c0,0,.1,0,.1-.1M20.8,29.6v-.2c0,0,0,0,0,0h0v.2h-.1v-.7h.1c.1,0,.2.2.2.3s0,.1,0,.2v.3c.1,0,0,0,0,0ZM22.8,25.1c0-.7-.4-1.4-1-1.9.5.7.8,1.5.7,2.3-.1-.7-.4-1.6-.9-2.2,0,.7-.2,1.5-.7,1.7.3-.3.6-1.1.4-1.7-.2,1-.5,1.5-1,1.7,0,0,.3.2.6.2.5,0,.9-.3.9-1.2h0c0,0,0,0,0,0,0,1.1.4,1.5.4,1.9s-.2.5-.5.4c.4.3,1.1-.2,1.1-1.2M20.5,29.6h-.3v-.8h.3v.2h-.2c0,0,0,.1,0,.1h.1c0,.1-.1,0-.1,0v.2h.2v.2ZM21.7,27.9c-.2,0-.4.1-.7.2-.3.1-.6.3-.8.2.3.1.8.3,1.1.3s.8-.1.8-.4-.1-.3-.4-.3M20.1,24.9c1-.3,1-1.3,1.3-2.2,1.2.8,1.6,1.6,1.6,2.4s-.5,1.4-1,1.4-.5-.2-.5-.4.1-.3.3-.3.3.1.3.2c0,0,0,0,0-.2,0-.2-.2-.6-.3-.9-.1.3-.5.5-.8.5s-.7-.2-.8-.5M20.1,27.9c0,.2.1.3.3.3.2,0,.5-.2.8-.3-.1-.2-.4-.3-.6-.3s-.4.1-.4.3M20.1,28.7h.1s-.1.7-.1.7h-.2c0,0,0-.8,0-.8h.1c0,0,0,.5,0,.5v.2h0s0-.2,0-.2v-.4ZM19.5,28.8c0,0,0,0,0,0s0,0,0,0,0,0,0,0,0,0,0,0M19.4,21.3s-.1,0-.2,0v.5l.3-.4c0,0,0-.2,0-.2M19.3,29.1h-.3v-.8h.3v.2h-.2c0,0,0,.1,0,.1h.1v.2h-.1c0,0,0,.2,0,.2h.2v.2ZM19.1,21.3c0,0-.1,0-.2,0v.9l.2-.3v-.6ZM18.9,28.4c0,0,0-.1-.1-.1v.2s.1,0,.1,0M18.9,28.9v-.3c0,0,0,0,0,0h0v.3h-.1v-.8h.1c.2.1.2.2.2.3s0,.1,0,.2l.2.4h-.1ZM18.7,21.4v1.3l.2-.3v-1c0,0-.1,0-.2,0M19.5,9.4c0-.2.1-.3.3-.3s.3.1.3.3-.1.3-.3.3c0,0,.2.1.4.1.2,0,.4-.2.4-.5s-.3-.6-.7-.6-1.2.5-1.2,1.7.2,1.6.9,2.3c-.4,0-.6.3-.6.6s0,.3.1.4c.2-.3.4-.4.8-.5-.2-.1-.5,0-.7,0,.1-.3.4-.4.7-.3-1-1.7-1.1-2.8-.8-3.5-.1.6,0,1.6,1,3.3,0-1.4-.5-1.7-.7-2.7.3.9,1,1.2.9,2.7.2-.3.3-.6.3-.9,0-1-1-1.6-1-2.4M18.5,10.3c0-1.3.7-1.8,1.3-1.8s.9.3.9.8-.3.6-.6.6-.2,0-.3,0c.3.7,1,1.1,1,2s-.2,1-.6,1.3c-.5,0-1,.4-1,.7-.1-.1-.3-.4-.3-.6s.2-.5.5-.6c-.6-.7-.8-1.6-.8-2.3M18.6,21.3c0,0-.1,0-.2,0v1.8l.2-.3v-1.5ZM18.4,11.8c0,0-.1-.1-.1-.2s0-.2,0-.4c.1.1.2.3.2.4s0,.2-.1.2M18.2,28.4h0s0-.3,0-.3h0s0,.1,0,.1v.2ZM18.4,12.2c-.2,0-.3-.2-.3-.4,0,0,.3,0,.3.3,0-.2.2-.2.3-.3h0c0,.2-.1.4-.3.4M18.3,21.2c0,0-.1,0-.2-.1v2.4l.2-.3v-2ZM18.6,28.8h-.3v-.3h-.1c0,0,0,0,0,0h0s.2-.7.2-.7h.4v.3h-.2c0,0,0,0,0,0h.1v.2h-.1c0,0,0,.1,0,.1h.2v.2ZM18,12.2s0,0,0-.1c0,.1.3.1.3.3,0-.2.3-.1.4-.2,0,.2-.1.3-.3.3s-.4-.1-.4-.3M18.1,15.8s0,0,0,0,0,0,0,0,0,0,0,0,0,0,0,0M17.9,12.5s0,0,0-.1c0,.1.4.1.4.4,0-.2.3-.1.5-.2,0,.3-.1.3-.4.3s-.5-.1-.5-.4M18.2,9.8v.3c0,.4,0,.9-.2,1.4-.1,0-.2-.1-.2-.4s0-.1,0-.2c0-.1,0-.5,0-.9s0-.3,0-.5c0,.3.2.3.3.3M18.4,17.2h.2c.7-.2,1-.4,1-.9s-.3-.7-.7-.7-.4,0-.6.2c-.1.1-.2.2-.4.2s-.1,0-.1,0c0-.2.5-.6,1.1-.6s1,.3,1,.9-.5,1-1.3,1.2h-.3s0-.2,0-.2ZM18.1,27.9v.5c0,.1,0,.2-.2.1-.1,0-.2-.1-.2-.3v-.5h.1v.5c0,0,0,.1,0,.1,0,0,0,0,0,0v-.5h.1ZM17.7,12.8c0,0,0-.1,0-.2,0,.1.3.2.3.4h0s.1,0,.2,0c.2,0,.3,0,.3,0,0,.2-.2.3-.4.3s-.5-.2-.5-.4M18.3,18.3h0c.3.1.5.2.5.3h-1.2c0-.1.2-.2.5-.2h0c0-.1.2,0,.2,0ZM17.6,22.2c0,.7.3,1,.4,1.3v-2.5h-.1c0,.3-.3.5-.3,1.2M17.6,26.6c.1,0,.7,0,.9,0,.4,0,1.1,0,1.5-.3-.8.5-1.6.4-2.3.4.4.2.8.3,1.1.3.9,0,1.5-.6,2-.6s.4.1.5.4c0,0,0,0,0-.1,0-.7-.8-1-1.3-1s-1.7.6-2.4.8c.8,0,1.8-.4,2.5-.4s.5,0,.6.1c-.9-.1-1.7.4-3,.5M17.5,13.6v.3h0s0-.3,0-.3v.3c0,0,.2,0,.2,0v-.3h0v.3s0-.3,0-.3h-.1ZM17.7,9.7c0,.3,0,.6,0,.9-.2,0-.2-.2-.2-.4v-.4c0-.1,0-.3,0-.5,0,.3.2.3.3.3M18,18.1c-.5,0-.6-.2-.6-.3s0-.3.5-.4v.2c-.1,0-.2,0-.2.1s0,0,.3.1h.2c.6.2.7.4.8.5,0,0,0,0,0,.1,0,0,0,.1,0,.1-.1,0,0-.3-.8-.5h-.2ZM17.3,28c0,.1,0,.3.1.3s0-.1,0-.3,0-.2,0-.2,0,0,0,.2M17.9,20.5c.3.5.6.6,1,.6s.4-.1.6-.1.3.1.3.3,0,.2,0,.2l-1.6,2.6h-.4v-.2s0-.1,0-.2c0-.4-.4-.7-.4-1.4s.3-.9.3-1.2,0-.2,0-.3l.2-.2h.2ZM17.4,28.4h0c-.2,0-.2-.1-.2-.4s0-.3.2-.3.2.1.2.4,0,.2-.1.3h0s0,0,0,0h0c0,.1-.2,0-.2,0ZM17.2,13.9h.2c0,0,0,0,0,0h-.1c0-.1,0,0,0,0h0c0,0,0,0,0,0h0c0,0,0,0,0,0h0c0,0-.2-.1-.2-.1v.3ZM18,11.6c-.2.5-.4,1.1-.7,1.5,0,0,0,0,0-.1s.1-.3.2-.5c.1-.4.3-.7.4-1.3,0,.3,0,.4.2.4M18,17.8v-.8c-.6-.1-1-.3-1-.7h2.2c0,.4-.4.5-1,.7v.8h-.2ZM17.3,9.7c0,0,0,.2,0,.3,0,.2,0,.4,0,.7-.2,0-.2-.2-.2-.4s0-.3,0-.4,0-.3,0-.4c0,.3.2.3.3.3M17,13.7c0,0,0,.1,0,0v-.3s0,0,0,.2M21,27.1c-.2,0-.3,0-.3-.3s0-.2.2-.2c-.4-.1-1.1.6-2.1.6s-1.2-.3-1.8-.8c1.4-.4,2.2-.9,3-.9s1.5.5,1.5,1.1-.2.4-.4.4M17.4,9.2c0-.4-.2-.7-.4-.9,0,0-.1-.1-.1-.1s0,0,0,0c.1,0,.4.2.5.5.1.2.2.6.2,1-.2,0-.3-.1-.3-.4M17,13.8c0,0,.2,0,.2-.1s0-.2-.2-.2h-.1s0,.3,0,.3h.1ZM16.8,27.9c0,0,0,0,0,0s0,0,0,0,0,0,0,0,0,0,0,0M17.7,10.8c-.1.8-.4,1.5-.7,2,0,0-.1,0-.1-.1,0-.1,0-.3.1-.4.1-.4.4-.9.5-1.8,0,.3.1.4.2.4M17,9.2c0-.2-.1-.5-.3-.7,0,0,0,0,0-.1s0,0,0,0c0,0,.1,0,.2.1.2.3.3.6.3,1.1-.2,0-.2,0-.3-.3M16.7,13.5s0,0,0,0h0c0-.1,0,0,0,0M16.9,9.5v.4c0,.2,0,.3,0,.5-.1,0-.3-.1-.3-.3s0-.3,0-.5,0-.3,0-.4c0,.2.1.3.3.3M16.7,8.8c0,0,.1,0,.2.6-.2,0-.3-.2-.3-.4s0-.2,0-.2M16.8,13.8v-.2s0,0,0,0c0,0,0-.1-.1-.1h-.1s0,.3,0,.3h.1s0-.1,0-.1v.2c0,0,.2,0,.2,0ZM17.3,10.8c0,.5-.4,1.3-.7,1.8,0,0,0,0,0-.1,0-.1,0-.2,0-.4.1-.4.4-1,.4-1.6,0,.3.1.4.2.4M16.4,20.2c0,0-.1,0-.1-.1,0-.1.1-.3.3-.3v-.7h0c0,.7,0,.8,0,.9,0,.2-.1.3-.3.3M16.4,13.6s0,0,0-.1,0-.1,0-.1c0,0,0,0,0,.1s0,.1,0,.1M16.3,27.8h0s0-.2,0-.2h0c0-.1,0-.1,0-.1h0c0,.1,0,.3,0,.3ZM16.3,9.5c0-.1,0-.2.1-.2s0,0,0,.4,0,.5,0,.8c0,0-.2-.1-.2-.3s0-.3,0-.6M16.3,13.6c0,0,.2,0,.2-.1s0-.2-.1-.2c0,0-.1,0-.1.2s0,.2.1.2M16.9,10.6c0,.5-.3,1.3-.6,1.7,0,0,0,0,0-.1,0-.1,0-.2.1-.4.1-.4.3-.9.3-1.5,0,.3.1.3.3.3M16.4,10.6c0,.2,0,.5-.2.7,0,0-.1-.1-.1-.3s0-.5.1-.7c0,.2.1.3.2.3M16.6,28.1h-.3v-.2h-.1s0,.1,0,.1h-.1s.2-.7.2-.7c0,0,.3,0,.3,0h0c0,.1-.2,0-.2,0v.2h.1c0,.1-.1,0-.1,0v.2h.2ZM16.1,20.5c-.2-.1-.1-.3,0-.4l.3-.6h0l-.2.6c0,.1.1.2,0,.3.1-.1.3,0,.4,0-.1.1-.3.2-.5,0M16,27.3h.1v.7h-.1v-.7ZM16.3,13.1c.3,0,1,.4,1.6.4s.5,0,.7-.2c0,.6-.3.8-.8.8s-1.6-.5-1.9-.5c0-.4.1-.5.4-.5M15.9,20.7c-.2-.2-.2-.4,0-.5,0,.1.2.3,0,.4.1-.1.3.1.4.1-.1.1-.3.2-.5,0M15.8,13.9s-.1,0-.2-.2c0,0,0,0,.2.1,0,0-.1-.1-.1-.2.2,0,.2.2.2.2s0,0,0,0M16.1,13h0c0-.1-.2-.4-.2-.4h-.2c0,0-.1.2-.1.2h0v-.2s.3-.2.3-.2v-.5c0,0,0,0,0,0s0,0,0,0v.5s.5.2.5.2h0c0,.1,0,.1,0,.1h0c0,0-.2-.1-.2-.1h.2c0,.1,0,.3,0,.3h-.1c0-.1-.2-.3-.2-.3v.2c.1,0,.1.1.1.1h0ZM15.9,11.6h0c0,.2,0,.3,0,.3,0,0-.1,0-.1-.3,0,.1-.1.2-.2.3,0-.3,0-.4.1-.5,0,.1.1.1.2.1s.1,0,.1-.1c0,0,.1.2.2.4,0,0-.2,0-.2-.1M15.9,11.2h0c0,.2,0,.3,0,.3s-.1,0-.1-.2c0,.1,0,.2-.2.2h0c0-.4,0-.5.3-.5s.3,0,.3.4c0,0-.1,0-.2-.1M15.4,26.5c1.1-.6,2.6-.8,3.7-1.4,1.2-.7,2.1-2,2.2-4.9-.5,0-.7-.3-.7-.6h-3.5c0,0,0,.2,0,.4,0,.8-.2,1.4-1.7,1.9v4.7ZM15.6,14.2c0,0-.2,0-.2-.3,0,0,0,.1.1.2,0-.1,0-.2-.1-.3.1.1.2.3.2.3s0,0,0,0M21.5,14.4c-.3,0-.5,0-.7-.2-.2-.2-.2-.4-.2-.7h-.3c-.7.5-1.6,1-2.5,1s-1.2-.1-1.7-.4l-.7,1v2.6c.3.2.7.3,1.2.3s.2,0,.3,0l.3.3c0,.2-.1.4-.1.6s0,.3,0,.5h3.5c0-.3.3-.5.7-.6,0-.5-.3-1.5-.3-2.2s.2-1.3.7-2v-.3ZM15.6,27.6v-.2h0v.3s0,.2,0,.2h-.1v-.7h.1s0,.3,0,.3v.2h0v-.2s.1-.3.1-.3h.1v.7h-.1v-.5s0,0,0,0v.2s0,.2,0,.2h0v-.2ZM15.3,7.4s0,0,0,0,0,0,0,0,0,0,0,0,0,0,0,0M15.3,13.3h0c0,.1.1.1.1.1h0c0-.1,0-.3,0-.3h0v.2c0,0-.1-.2-.1-.2h-.1v.2ZM15.3,18.8c0,0-.2,0-.2-.2s0-.2.1-.3v-.4h0v.4c0,.1.1.2.1.3s0,.2-.2.2M15.3,14.5c0,0-.1,0-.1-.2s0-.2,0-.4c0,0,0,.2,0,.3,0-.1,0-.2,0-.3,0,.2,0,.3,0,.4s0,.2-.1.2M15.1,28v-.7h.3s0,0,0,0h-.1v.2h.1s0,0,0,0h-.1v.2h.1s0,0,0,0h-.3ZM15.6,29.7c0-.2-.1-.4-.3-.6-.2.1-.3.3-.3.6s.2.4.3.4.3-.1.3-.4M14.9,14.1c0,0,0-.2.2-.3,0,.1,0,.2-.1.3,0-.1.1-.1.1-.2,0,.3-.1.3-.2.3s0,0,0,0M15.7,13.6c-.1,0-.3,0-.4,0s-.2,0-.3,0c0-.1-.1-.3-.1-.4s.1-.2.4-.2.5,0,.5.2,0,.3-.1.4M14.8,13.9c0,0,0-.2.2-.2,0,0,0,.1-.1.2.1,0,.1,0,.2-.1,0,.2-.2.2-.2.2s0,0,0,0M15.3,19.1c-.2,0-.3-.1-.4-.3l-.2-.5h0l.2.4c.1,0,.3.1.3.3,0-.1.2-.2.3-.3l.2-.4h0l-.2.5c0,.2-.2.3-.4.3M14.9,27.6c0-.2,0-.3-.1-.2v.5c0,0,.1-.1.1-.2M15.5,8c0,0,0,.2,0,.2,0,0-.1.1-.3.1s-.2,0-.2-.1,0-.2,0-.3,0,0,0,0c0,0,0,0,.1,0s.1,0,.1,0c-.3,0-.3,0-.4-.2,0,0-.2,0-.2,0,0,0,0,0-.1,0,0-.2,0-.2.2-.3,0,0,0,0,0-.1,0-.1.1-.2.4-.2s.2,0,.2,0c0,0,0,0,0,0,.1,0,.2.2.2.3,0,.2-.1.3-.1.5M15.3,10.5c.1,0,.2-.1.2-.3,0,.2,0,.3.2.3s.1-.1.1-.3c.1.2.2.4.2.5s0,.2,0,.2c0,0-.1,0-.2-.3,0,.2,0,.3-.1.3s-.1,0-.1-.2c0,.2,0,.3-.1.3s-.1-.1-.1-.3c0,.1-.1.2-.1.2,0,0-.1-.1-.1-.3,0,.2-.1.3-.2.3s0,0,0-.2,0-.3.2-.5c0,.2,0,.3.1.3s.1,0,.2-.3c0,.2.1.3.2.3M14.6,27.3h0c.2,0,.3,0,.3.3s-.1.3-.3.4h0s0-.7,0-.7ZM15.3,19.5c-.2,0-.4-.1-.5-.3l-.3-.5h0l.3.4c.1,0,.4.1.4.3,0-.1.3-.2.4-.3l.3-.4h0l-.3.5c0,.2-.3.3-.5.3M15.3,9.8c.1,0,.2-.1.2-.3,0,.2.1.2.2.2s.2-.1.2-.3c0,.1.1.3.2.3,0,.2,0,.4-.1.4s0-.1-.1-.3c0,.2,0,.3-.2.3s-.1,0-.1-.3c0,.2-.1.3-.2.3s-.2-.1-.2-.3c0,.2,0,.3-.1.3s-.2-.2-.2-.3c0,.2,0,.3-.1.3-.1,0-.1-.1-.1-.4,0,0,.2-.1.2-.3,0,.2,0,.3.2.3s.1,0,.2-.2c0,.2,0,.3.2.3M14.9,10.9c.2,0,.3,0,.3.4h0c-.1.1-.2,0-.2,0,0,.1,0,.2-.1.2,0,0,0,0,0-.1h0c0,0-.2,0-.2,0,0-.3.2-.4.3-.4M15.3,19.8c-.2,0-.4-.1-.5-.3l-.4-.5h0l.4.5c.1,0,.4.1.4.2,0-.1.2-.2.4-.2l.4-.5h0l-.4.6c0,.2-.2.3-.5.3M14.7,11.4c0,0,0,.2.1.2s.1,0,.2-.1c0,0,.1.2.1.5-.1,0-.2-.1-.2-.3,0,.2,0,.3-.1.3s0,0,0-.1h0c0,0-.1,0-.3,0,0-.2.1-.3.2-.4M14.8,21.3l.4-.3h-.2c-.1,0-.3,0-.5,0,.1,0,.3-.3.4-.1-.1-.1,0-.3,0-.5.1,0,.2.3,0,.5h.2c0,.1,0-.6,0-.6-.2,0-.4-.2-.5-.4l-.4-.7h0l.5.6c.2,0,.5.1.5.3,0-.1.3-.2.5-.3l.5-.6h0l-.4.7c0,.2-.3.4-.5.4v.7h.2c-.1-.3,0-.5,0-.6,0,.1.1.3,0,.5.1-.1.3.1.4.1-.2.1-.3,0-.5,0h-.2c0,.1.4.4.4.4h-.1s-.4-.2-.4-.2v.4h0s0,0,0,0v-.4l-.3.3h-.1ZM14.4,27.8v-.3h0v.3s0,0,0,0ZM14.4,13.4c0,0,0,.1,0,.1v-.2s0,0,0,.1M14.8,20.7c-.2.2-.4.2-.5,0,.1,0,.3-.2.4-.1-.1-.1,0-.3,0-.4.2.1.2.3,0,.5M14.3,13.6c.1,0,.2,0,.2-.2s0-.1-.2-.1h-.1v.4h.1ZM14.2,10.6c0,0,.2,0,.2-.3,0,.2.1.6.1.7s0,.3-.1.3c0-.2-.1-.5-.2-.7M14.2,28.1v-.7c0,0,.3,0,.3,0v.7c.1,0,0,0,0,0h0c0-.1-.1-.1-.1-.1h0c0,.1-.1.2-.1.2ZM14.4,13h0c0-.1.1-.4.1-.4l-.2.2h0c0,.1,0,.1,0,.1h0c0-.1.2-.3.2-.3h-.2c0,0,0,.1,0,.1h0,0c0-.1.4-.3.4-.3v-.5c0,0,.1,0,.1,0,0,0,0,0,.1,0v.5c-.1,0,.2.2.2.2v.2s0,0,0,0h-.1c0-.1-.2-.2-.2-.2l-.2.2h0c0,.1,0,.1,0,.1ZM14.4,9.5c0,.3,0,.5,0,.6,0,.2-.1.3-.2.3,0-.3,0-.5,0-.8s0-.4.1-.4.1,0,.1.2M14,13.4v.2s0,0,0,0v-.2ZM14.5,20.5c-.2.1-.3.1-.5,0,.1,0,.3-.1.4,0-.1-.1,0-.2,0-.3l-.2-.6h0l.3.6c0,.1.1.3,0,.4M14.2,20.2c-.1,0-.3,0-.3-.3s0-.2,0-.9h0v.7c.1,0,.3.2.3.3s0,0-.1.1M14,13.3v.4c0,0,0,0,0,0h0c0,0,0,0,0,0h0c0,0,.1,0,.1,0v-.3c0,0-.2,0-.2,0ZM14.6,28.7c.3,0,.5,0,.7.2.2-.1.4-.2.7-.2.5,0,.8.3.8.6s-.2.4-.5.4-.3,0-.3-.3,0-.2.2-.2.2.1.1.3c.2,0,.3-.1.3-.3,0-.3-.3-.4-.6-.4s-.5,0-.6.2c.2.2.4.4.4.7s-.3.5-.5.5-.5-.2-.5-.5.1-.5.4-.7c-.1,0-.3-.2-.6-.2-.4,0-.6.2-.6.4s.1.3.3.3c0-.1,0-.3.1-.3s.2,0,.2.2c0,.2-.1.3-.3.3s-.5-.2-.5-.4.3-.6.8-.6M14.1,28.1c-.1,0-.3,0-.3-.3s.1-.4.3-.4h0c-.1.1-.2.2-.2.4s0,.3.2.2h0ZM13.8,10.6c.1,0,.2,0,.3-.3,0,.6.2,1.1.3,1.5,0,.2.1.3.1.4s0,.1,0,.1c-.3-.4-.5-1.2-.6-1.7M13.9,8.8s0,0,0,.2,0,.4-.3.4c0-.5.1-.6.2-.6M13.7,9.5c.1,0,.2-.1.3-.3,0,.2,0,.3,0,.4,0,.2,0,.4,0,.5,0,.2-.1.3-.3.3,0-.2,0-.4,0-.5v-.4ZM14,18.2c0,0-.1,0-.2,0v.2c0,.2,0,.4,0,.6s0,.7,0,.9c0,.8.2,1.3,1.6,1.7,1.4-.5,1.6-1,1.6-1.7s0-.7,0-.9,0-.4,0-.6v-.2c-.2,0-.3,0-.3,0-.4,0-.9,0-1.3-.4-.4.3-.8.4-1.3.4M13.7,13.5h0s0,.3,0,.3h.1v-.3h0c0,0-.2,0-.2,0h0ZM13.6,13.6s0,0,0,0h0c0-.1,0-.1,0,0M13.5,28h0s0-.2,0-.2h0c0-.1,0-.1,0-.1h0c0,.1,0,.3,0,.3ZM13.7,13.8h0c0-.1,0-.2,0-.2,0,0,0-.1-.1,0h-.1v.4h.1v-.2h0c0,.1.1,0,.1,0ZM13.4,10.8c.1,0,.2-.1.2-.4,0,.6.3,1.2.4,1.6,0,.2,0,.3,0,.4s0,.1,0,.1c-.3-.4-.6-1.3-.7-1.8M13.4,28.3v-.7c.1,0,.3,0,.3,0v.6c.1,0,0,0,0,0h0c0-.1-.1,0-.1,0h0c0,.1-.1.2-.1.2ZM13.6,9.2c0,.3-.1.3-.3.3,0-.5.1-.8.3-1.1,0,0,.1-.1.2-.1s0,0,0,0,0,0,0,.1c-.1.2-.2.5-.3.7M13.3,9.7c.1,0,.2,0,.3-.3,0,.2,0,.3,0,.4s0,.3,0,.4c0,.2,0,.3-.2.4,0-.2,0-.4,0-.7s0-.2,0-.3M13.7,17.5l-.4-1.5v1.5h.4ZM13.2,13.9h.2c0-.1-.1,0-.1,0h0c0,0,0-.1,0-.1h0c0,0,0,0,0,0h0c0,0,0,0,0,0h0c0,0-.2,0-.2,0v.3ZM13,28c0,0,0,0,0,0s0,0,0,0,0,0,0,0,0,0,0,0M13,13.9s0,0,0,0h0c0-.1,0-.1,0,0M13,13.7s0,0,0,0h0c0-.1,0,0,0,0M13,10.8c.1,0,.2-.1.2-.4.1.9.4,1.5.5,1.8,0,.2.1.3.1.4s0,.1,0,.1c-.3-.5-.6-1.3-.7-2M12.9,9.7c.1,0,.2,0,.3-.3,0,.2,0,.3,0,.5v.4c0,.1,0,.3-.2.4,0-.3,0-.7,0-.9M13.2,9.2c0,.3-.1.4-.3.4,0-.4.1-.7.2-1,.1-.3.4-.5.5-.5s0,0,0,0,0,0-.1.1c-.2.2-.3.5-.4.9M12.9,13.6v.3h.1c0,0,.1,0,.1-.1s0,0,0,0c0,0,0,0,0,0,0,0,0,0-.1,0h-.1ZM12.7,13.9h.1v-.3h-.1v.3ZM12.7,11.6c.1,0,.2-.1.2-.4.1.6.3.9.4,1.3.1.3.2.4.2.5s0,0,0,.1c-.3-.4-.6-.9-.7-1.5M12.7,17.5h.4v-1.5l-.4,1.5ZM12.5,28.4c0,0,.2,0,.2,0,0-.1-.2-.1-.2-.3s.1-.2.3-.2h0c0,0-.2.1-.2.2s.2.1.2.3-.1.2-.3.2h0ZM16.9,7.7c.5,0,1.2.5,1.3,1.9-.2,0-.3-.1-.3-.4-.1-.9-.6-1.3-.9-1.3-.7,0-.1,1-.8,1.2,0,.2,0,.4-.1.4s-.1-.2-.2-.3c0,.2,0,.4-.1.4s-.1-.2-.2-.4c0,.2-.1.4-.2.4s-.2-.2-.2-.4c0,.2-.1.4-.2.4s-.1-.2-.1-.4c0,.1,0,.3-.2.3s-.1-.2-.1-.4c-.7-.1-.1-1.2-.8-1.2s-.8.4-.9,1.3c0,.2,0,.4-.3.4,0-1.4.7-1.9,1.3-1.9.8,0,.4,1,.7,1s.3-.2.4-.4c0,0,0,0,0,.1,0,.2.2.3.4.3s.5-.1.5-.3,0,0,0-.1c.1.2.2.4.4.4.3,0,0-1,.7-1M12.5,13.6v.3s.1,0,.2,0h0c0,0,0,0,0,0v-.3h-.1ZM12.5,9.8c.1,0,.2,0,.3-.3,0,.2,0,.3,0,.5,0,.4,0,.8,0,.9,0,0,0,.1,0,.2,0,.2,0,.3-.2.4-.1-.4-.2-1-.2-1.4s0-.2,0-.3M12.2,28.5h.1s0-.2,0-.2v-.2s0,0,0,0v.3ZM12.1,28.8v-.7c0,0,.3,0,.3,0v.6c.1,0,0,0,0,0h0c0-.1-.1,0-.1,0h0c0,.1-.1.2-.1.2ZM12.2,11.8c0,0-.1-.1-.1-.2s0-.3.2-.4c0,.2,0,.3,0,.4s0,.2-.1.2M14.3,13.1c.3,0,.4.1.4.5-.3,0-1.2.5-1.9.5s-.8-.2-.8-.8c.2.1.5.2.7.2.6,0,1.2-.4,1.6-.4M12.9,12.8c0,.3-.3.4-.5.4s-.3-.1-.4-.3c0,0,.1,0,.3,0s.2,0,.2.1h0c0-.3.3-.4.3-.5,0,0,0,.1,0,.2M12.2,12.2c-.2,0-.3-.1-.3-.3s0,0,0-.1c0,.1.3,0,.3.3,0-.2.2-.3.3-.3,0,.2-.1.4-.3.4M12.7,12.5c0,.2-.2.4-.5.4s-.3,0-.4-.3c.1.1.4,0,.5.2,0-.2.3-.2.4-.4,0,0,0,0,0,.1M12.6,12.2c0,.2-.1.3-.4.3s-.3-.1-.3-.3c.1,0,.3,0,.4.2,0-.2.2-.2.3-.3,0,0,0,0,0,.1M11.8,28.2h.1s0,.6,0,.6h.1c0,0,0,0,0,0h-.2c0,0,0-.6,0-.6ZM11.5,28.3v.5s0,0,0,0c0,0,0,0,0-.1v-.5h.1c0,0,0,.4,0,.4,0,.2-.1.3-.2.3s-.1,0-.1-.1v-.5h.1ZM11.3,16v1.5h.4l-.4-1.5ZM11.2,28.9h0c0-.1,0-.3,0-.3h0s0,.3,0,.3h.1ZM13.5,23.4c0,0-.2,0-.3,0-.3,0-.5-.2-.5-.6s0-.5,0-1.2h-.7c0,.4,0,.7,0,1.1,0,.3-.2.6-.5.8l-.2-.3c.2-.2.4-.3.4-.6,0-.3,0-.7,0-1-.4,0-.5.2-.5.5h-.3c0-.6.3-.8.8-.8h1.7v.3h-.5c0,.8,0,.9,0,1.2s.1.4.3.4.2,0,.2,0v.3ZM10.9,29.3v-.7c.1,0,.3,0,.3,0v.7c.1,0,0,0,0,0h0c0-.1-.1,0-.1,0v.2s-.1,0-.1,0ZM11.2,17.5v-1.5l-.4,1.5h.4ZM10.6,29c0,0,0,0,0,0s0,0,0,0,0,0,0,0,0,0,0,0M12.2,16c-.1,0-.2,0-.3-.2-.2,0-.5,0-.6,0l.5,1.7h.1c0,.2-.3.4-.8.4s-.8-.2-.8-.4h.1l.5-1.6h0s0-.2,0-.2c.3-.1.6-.2,1-.2,0-.1.1-.2.3-.2s.2,0,.2.2c.4,0,.7,0,1,.2v.2c0,0-.2,0-.2,0l.5,1.6h.1c0,.2-.2.4-.8.4s-.8-.2-.8-.4h.1l.5-1.7c-.1,0-.4,0-.6,0,0,0-.1.2-.3.2M10.3,29c0,0,0-.1-.1,0v.2c0,0,.1,0,.1-.1M10.1,29.6v-.7h0c.1,0,.2,0,.2.1s0,.2-.1.2l.2.2h-.1s0-.1,0-.1h0c0,0,0,0,0,0v.3h-.1ZM10.4,12.7c0-1.5.6-1.7.9-2.7-.2,1-.8,1.3-.7,2.7,1.1-1.8,1.1-2.7,1-3.3.3.6.1,1.7-.8,3.5.3,0,.6,0,.7.3-.2-.1-.5-.2-.7,0,.4,0,.6.3.8.5,0,0,.1-.2.1-.4,0-.3-.2-.5-.6-.6.6-.8.9-1.6.9-2.3,0-1.2-.6-1.7-1.2-1.7s-.7.3-.7.6.2.5.4.5.3,0,.4-.1c-.2,0-.3-.1-.3-.3s0-.3.3-.3.3.1.3.3c0,.8-1,1.4-1,2.4s0,.7.3.9M11.9,13.2c0,.3-.1.5-.3.6,0-.3-.5-.6-1-.7-.4-.3-.6-.8-.6-1.3,0-.9.7-1.3,1-2-.1,0-.2,0-.3,0-.3,0-.6-.2-.6-.6s.4-.8.9-.8,1.3.5,1.3,1.8-.2,1.6-.8,2.3c.3,0,.5.4.5.6M9.8,29c.1,0,.2,0,.3,0h0c0,.1-.1.1-.1.1v.2h.1s0,0,0,0h-.1v.2s.1,0,.1,0h0c0,.1-.2.2-.3.2v-.7ZM10.1,27.6c-.2,0-.5.1-.6.3.2.1.5.3.8.3s.3-.1.3-.3-.2-.3-.4-.3M9.5,29.1h-.1s0,0,0,0c0,0,.3,0,.3,0h0c0,.1,0,.1-.1.1v.6h-.1s0-.5,0-.5ZM10.6,26c.7,0,1.6.4,2.5.4-.7-.2-1.7-.8-2.4-.8s-1.3.3-1.3,1,0,0,0,.1c0-.3.2-.4.5-.4.5,0,1.1.6,2,.6s.7,0,1.1-.3c-.7,0-1.5,0-2.3-.4.4.2,1,.3,1.5.3s.7,0,.9,0c-1.3,0-2-.6-3-.5.1,0,.4-.1.6-.1M13.5,19.9c0-.1,0-.3,0-.4h-3.5c0,.3-.2.5-.7.6,0,2.9,1,4.2,2.2,4.9,1.1.6,2.5.9,3.7,1.4v-4.7c-1.4-.5-1.7-1.1-1.7-1.9M10.7,25.5c.9,0,1.6.5,3,.9-.6.5-1.2.8-1.8.8-1,0-1.7-.8-2.1-.6.1,0,.2.1.2.2s-.1.3-.3.3-.4-.2-.4-.4c0-.6.6-1.1,1.5-1.1M9.4,29.7h-.1s0-.3,0-.3v-.2h0v.3s0,.2,0,.2h-.1v-.6h.1s0,.3,0,.3v.2h0v-.3s0-.2,0-.2h.1v.7ZM10.1,19.4h3.5c0-.1,0-.3,0-.5s0-.4-.1-.6l.3-.3c0,0,.2,0,.3,0,.4,0,.9-.1,1.2-.3v-2.6l-.7-1c-.5.3-1.2.4-1.7.4-.9,0-1.8-.4-2.5-1.1h-.3c0,.4,0,.7-.2.8-.2.2-.4.3-.7.2v.3c.4.7.5,1.4.5,2s-.3,1.7-.3,2.2c.4,0,.7.2.7.6M8.8,29h.1v.6c0,0,0,0-.1,0v-.6ZM21.2,16.7c0,.9.3,1.4.3,2.3-.6,0-.7.2-.7.5s.2.5.8.5c0,3.2-1,4.4-2.3,5.2-1.1.6-2.5.8-3.9,1.6-1.4-.7-2.8-1-3.9-1.6-1.3-.7-2.2-2-2.3-5.2.5,0,.8-.2.8-.5s-.2-.5-.7-.5c0-.9.3-1.4.3-2.3s-.1-1.2-.7-2l.2-.4c.3,0,.5,0,.7-.1.1-.1.2-.4.1-.6l.5-.3c.8.7,1.6,1.1,2.5,1.1s1.1,0,1.8-.5l.8,1.1.8-1.1c.7.4,1.3.5,1.8.5.9,0,1.7-.4,2.5-1.1l.5.3c0,.3,0,.5.1.6.2.2.4.2.7.1l.2.4c-.5.7-.7,1.5-.7,2M8.5,28.2c0,.3.4.4.8.4s.8-.1,1.1-.3c-.3,0-.6,0-.8-.2-.2-.1-.5-.2-.7-.2s-.4.1-.4.3M11.5,28c-.9.4-1.6.7-2.2.7s-.7-.1-.8-.3v.8c0,.4.3.7.9.7s1.3-.3,2.3-.7c1.3-.6,2.4-1,3.6-1s2.3.4,3.6,1c1,.4,1.7.7,2.3.7s.9-.3.9-.7v-.8c-.1.1-.3.3-.8.3s-1.3-.3-2.2-.7c-1.1-.5-2.7-1.1-3.8-1.1s-2.7.6-3.8,1.1M11.8,29.4c-1,.4-1.7.7-2.3.7s-1.1-.3-1.1-.9v-1c0-.3.2-.6.7-.6s.3,0,.4,0c.2-.2.5-.4.8-.4s.6.2.6.5,0,.3-.2.4c.3-.1.6-.3,1-.4,1-.5,2.7-1.1,3.9-1.1s2.9.6,3.9,1.1c.4.2.6.3,1,.4-.2,0-.2-.2-.2-.4,0-.3.2-.5.6-.5s.6.1.8.4c.1,0,.3,0,.4,0,.4,0,.7.2.7.6v1c0,.5-.4.9-1.1.9s-1.3-.3-2.3-.7c-1.3-.6-2.3-1-3.6-1s-2.3.4-3.6,1M9,23.3c-.5.6-.8,1.6-.9,2.2,0-.8.2-1.6.7-2.3-.7.5-1,1.2-1,1.9,0,1,.7,1.5,1.1,1.2-.3,0-.5-.1-.5-.4s.4-.8.4-1.9c0,.9.4,1.3.9,1.3s.5-.1.6-.2c-.5-.2-.8-.8-1-1.7-.2.6.1,1.4.4,1.7-.4-.1-.7-1-.7-1.7M8.5,16.4c0-.5-.1-1-.2-1.4,0,.3-.1.8-.1,1,0,.5,0,1,.2,1.8-.2-.6-.3-1.4-.3-1.8s0-.8.1-1c-.3.4-.4.8-.4,1.3,0,.8.4,1.5.4,2.3.6-.5.9-1.2.9-1.9s-.2-1-.6-1.6c0,.3.2,1,.2,1.4,0,.3,0,.7,0,1,0-.3,0-.7,0-1M10.5,24.9c-.1.3-.5.5-.8.5s-.7-.2-.8-.5c0,.4-.3.7-.3.9s0,.1,0,.2c0,0,.1-.2.3-.2s.3.1.3.3-.2.4-.5.4c-.5,0-1-.5-1-1.4s.4-1.6,1.6-2.4c.3.9.3,2,1.3,2.2M8.5,14.6c0,.5.7.9.7,2s-.6,1.8-1.3,2.2c0-.1,0-.2,0-.3,0-.7-.4-1.5-.4-2.2s.3-1.5,1-1.8c0,0,0,0,0,.1M8.5,20.9c-.6.6-1,1.4-1.2,2.5,0-1.2.5-2,1.1-2.6-1,.5-1.4,1.3-1.4,2.2s.2.9.4,1.1c.2-.4.5-.8.8-1.1.3-.4.6-.8.6-1.6s0-.2,0-.4c-.2.8-.6,1.5-1,2.1.3-.7.7-1.3.8-2.1M8.9,21.4c0,.8-.3,1.3-.7,1.7-.3.3-.6.7-.8,1.3-.3-.2-.6-.7-.6-1.4s.4-1.4.7-1.8c.4-.4.9-.6,1.2-1,.1.3.2.8.2,1.2M8.8,13.8c-.1,0-.5,0-.8.2-.5.3-.9.6-1.1.2.3.2.6,0,1.1-.4.3-.2.6-.2.8-.2-.3-.2-.8-.5-1-.7.3.2.7.4,1,.6-.2-.3-.7-.8-1.2-1.1.5.1,1,.6,1.4,1-.1-.5-.2-1-.2-1.5,0,.5.2,1,.3,1.4.2-.9,0-1.6,0-2.2.3.5.4,1.2.3,2.2.1-.2.3-.7.3-1.1,0-.8-.3-1.3-.8-1.5,0,0,0,0-.1,0,0,0,0,.2,0,.2,0,.4-.3.6-.3,1.2s0,.3,0,.4c-.3-.5-.7-.6-1-.6s-.2,0-.3,0c0,.3.1.9.9,1.2-.7.1-.7.5-1,.5s-.2,0-.2-.2,0-.2.2-.2c0,0-.1,0-.1,0-.3,0-.5.3-.5.5s.3.5.6.5c.6,0,1.1-.6,1.6-.8M6.9,18.9c0-.2.1-.3.3-.3s.1,0,.2,0c0,0-.1,0-.2,0-.3,0-.6.4-.6.9s.4,1,1,1,1.2-.6,1.2-1.3c-.2.5-.6.9-1.2.9s-.6-.3-.7-.6c.2.3.4.4.7.4.5,0,.9-.4,1.1-.9-.3.3-.6.5-1.1.5s-.6-.2-.6-.5M6.4,14.1c0-.4.3-.7.6-.7s.4.1.4.3c.1-.1.2-.2.4-.3-.5-.3-.8-.8-.7-1.3,0,0,.2,0,.4,0s.6,0,.8.3c0-.7.3-.8.3-1.3s0-.2,0-.4c.6,0,1.2.6,1.2,1.7s-.2,1.1-.5,1.5c-.7,0-1.3.9-2.1.9s-.8-.3-.8-.7M8.9,19c0,1.1-.7,1.6-1.4,1.6s-1.2-.5-1.2-1.2.4-1,.8-1c.3,0,.4.2.4.4s-.1.3-.3.3-.1,0-.1,0c0,.2.3.2.4.2.5,0,1-.3,1.3-.9,0,.2,0,.4,0,.7"/>
      </g>
    </g>
  </g>
</svg>